<?xml version="1.0" standalone="no"?>
<!DOCTYPE svg PUBLIC "-//W3C//DTD SVG 20010904//EN"
 "http://www.w3.org/TR/2001/REC-SVG-20010904/DTD/svg10.dtd">
<svg version="1.0" xmlns="http://www.w3.org/2000/svg"
 width="400.000000pt" height="400.000000pt" viewBox="0 0 400.000000 400.000000"
 preserveAspectRatio="xMidYMid meet">
<metadata>
Created by potrace 1.14, written by Peter Selinger 2001-2017
</metadata>
<g transform="translate(0.000000,400.000000) scale(0.100000,-0.100000)"
fill="#000000" stroke="none">
<path d="M830 2425 l0 -65 -65 0 -65 0 0 -340 0 -340 65 0 65 0 0 -65 0 -65
205 0 205 0 0 65 0 65 65 0 65 0 0 340 0 340 -65 0 -65 0 0 65 0 65 -205 0
-205 0 0 -65z m410 -405 l0 -340 -205 0 -205 0 0 340 0 340 205 0 205 0 0
-340z"/>
<path d="M970 2020 l0 -70 65 0 65 0 0 70 0 70 -65 0 -65 0 0 -70z"/>
<path d="M2710 2425 l0 -65 -65 0 -65 0 0 -70 0 -70 -70 0 -70 0 0 -65 0 -65
-65 0 -65 0 0 -205 0 -205 200 0 200 0 0 -65 0 -65 70 0 70 0 0 470 0 470 -70
0 -70 0 0 -65z m0 -405 l0 -200 -135 0 -135 0 0 135 0 135 70 0 70 0 0 65 0
65 65 0 65 0 0 -200z"/>
<path d="M3120 2425 l0 -65 -70 0 -70 0 0 -70 0 -70 70 0 70 0 0 -270 0 -270
-70 0 -70 0 0 -65 0 -65 205 0 205 0 0 65 0 65 -70 0 -70 0 0 405 0 405 -65 0
-65 0 0 -65z"/>
<path d="M1500 2155 l0 -65 70 0 70 0 0 -70 0 -70 65 0 65 0 0 -65 0 -65 -65
0 -65 0 0 -70 0 -70 -70 0 -70 0 0 -65 0 -65 70 0 70 0 0 65 0 65 65 0 65 0 0
70 0 70 70 0 70 0 0 -70 0 -70 65 0 65 0 0 -65 0 -65 70 0 70 0 0 65 0 65 -70
0 -70 0 0 70 0 70 -65 0 -65 0 0 65 0 65 65 0 65 0 0 70 0 70 70 0 70 0 0 65
0 65 -70 0 -70 0 0 -65 0 -65 -65 0 -65 0 0 -70 0 -70 -70 0 -70 0 0 70 0 70
-65 0 -65 0 0 65 0 65 -70 0 -70 0 0 -65z"/>
</g>
</svg>
